<svg width="461" height="438" viewBox="0 0 461 438" fill="none" xmlns="http://www.w3.org/2000/svg">
<g filter="url(#filter0_d_1_202)">
<path d="M307.834 312.856C306.469 311.343 309.687 302.508 324.959 301.883C340.23 301.257 346.348 306.818 346.37 312.856C346.382 315.528 307.834 312.856 307.834 312.856Z" fill="#455A64"/>
<path d="M300.295 81.7055L283.329 186.626H438.271L456.942 80.5798L300.295 81.7055Z" fill="#F5F5F5"/>
<path d="M298.748 91.2458C298.817 90.8819 455.168 90.6545 455.168 90.6545L456.942 80.5798L300.295 81.7169L298.748 91.2685" fill="#E0E0E0"/>
<path d="M306.845 86.4245C306.847 86.7106 306.764 86.9909 306.607 87.2298C306.45 87.4688 306.225 87.6557 305.961 87.7667C305.697 87.8778 305.407 87.908 305.126 87.8536C304.845 87.7991 304.587 87.6625 304.383 87.461C304.18 87.2595 304.042 87.0022 303.985 86.7218C303.928 86.4413 303.956 86.1504 304.065 85.8859C304.174 85.6213 304.359 85.3951 304.597 85.2359C304.835 85.0767 305.114 84.9917 305.401 84.9917C305.59 84.9902 305.777 85.0262 305.952 85.0975C306.127 85.1688 306.287 85.2741 306.421 85.4073C306.555 85.5405 306.662 85.699 306.734 85.8735C306.807 86.0481 306.845 86.2353 306.845 86.4245Z" fill="#263238"/>
<path d="M313.895 86.4245C313.895 86.7078 313.811 86.9849 313.653 87.2205C313.496 87.4561 313.272 87.6397 313.01 87.7482C312.748 87.8566 312.46 87.885 312.182 87.8297C311.904 87.7744 311.649 87.638 311.449 87.4376C311.248 87.2372 311.112 86.9819 311.057 86.704C311.001 86.4261 311.03 86.138 311.138 85.8762C311.247 85.6144 311.43 85.3906 311.666 85.2332C311.902 85.0758 312.179 84.9917 312.462 84.9917C312.842 84.9917 313.206 85.1427 313.475 85.4114C313.744 85.6801 313.895 86.0445 313.895 86.4245Z" fill="#263238"/>
<path d="M320.956 86.4245C320.958 86.7106 320.876 86.9909 320.718 87.2298C320.561 87.4688 320.336 87.6557 320.073 87.7667C319.809 87.8778 319.518 87.908 319.237 87.8536C318.956 87.7991 318.698 87.6625 318.495 87.461C318.292 87.2595 318.153 87.0022 318.096 86.7218C318.04 86.4413 318.068 86.1504 318.177 85.8859C318.286 85.6213 318.471 85.3951 318.708 85.2359C318.946 85.0767 319.226 84.9917 319.512 84.9917C319.701 84.9902 319.889 85.0262 320.064 85.0975C320.239 85.1688 320.398 85.2741 320.532 85.4073C320.667 85.5405 320.773 85.699 320.846 85.8735C320.919 86.0481 320.956 86.2353 320.956 86.4245Z" fill="#263238"/>
<path d="M338.456 138.379L319.068 160.802C315.408 158.319 312.4 154.989 310.299 151.095C308.199 147.201 307.069 142.859 307.004 138.436C307.004 122.846 321.206 110.008 338.456 110.008C355.706 110.008 369.908 122.834 369.908 138.436L338.456 138.379Z" fill="#EE4248"/>
<path d="M340.946 141.938C340.852 142.097 340.741 142.245 340.617 142.381L339.605 143.587L335.761 148.135C332.418 152.047 327.665 157.573 321.968 164.225V163.861C326.263 166.818 331.226 168.662 336.409 169.228C342.261 169.903 348.188 169.008 353.58 166.636C358.726 164.4 363.17 160.813 366.44 156.254C367.914 154.128 369.095 151.814 369.954 149.374C370.703 147.095 371.158 144.73 371.307 142.336L371.557 142.597L349.384 142.222L343.152 142.086L341.504 142.029C341.311 142.047 341.116 142.047 340.924 142.029C341.105 142.011 341.288 142.011 341.469 142.029H343.095H349.293L371.557 142.177H371.83V142.45C371.701 144.897 371.25 147.317 370.488 149.647C369.625 152.14 368.427 154.504 366.929 156.675C363.599 161.355 359.048 165.032 353.773 167.307C348.281 169.709 342.25 170.612 336.296 169.922C331.024 169.324 325.983 167.425 321.627 164.396L321.4 164.236L321.581 164.02L335.613 148.021L339.536 143.587L340.582 142.45C340.689 142.269 340.81 142.097 340.946 141.938Z" fill="#263238"/>
<path d="M351.828 123.255C352.802 123.255 353.591 122.466 353.591 121.493C353.591 120.519 352.802 119.73 351.828 119.73C350.855 119.73 350.066 120.519 350.066 121.493C350.066 122.466 350.855 123.255 351.828 123.255Z" fill="#263238"/>
<path d="M388.602 108.598C388.053 108.683 387.498 108.721 386.942 108.712L382.394 108.803C378.584 108.803 373.297 108.894 367.509 108.894H364.735L364.939 108.814C361.289 112.453 358.037 115.637 355.683 117.911L352.897 120.572C352.579 120.917 352.22 121.223 351.828 121.481C352.104 121.103 352.413 120.749 352.749 120.424C353.443 119.685 354.341 118.752 355.41 117.638C357.684 115.284 360.891 112.032 364.507 108.371L364.587 108.291H367.577C373.388 108.291 378.653 108.291 382.462 108.371L387.01 108.473C387.544 108.464 388.077 108.506 388.602 108.598Z" fill="#263238"/>
<path d="M428.537 130.749C428.545 130.546 428.571 130.344 428.617 130.146C428.685 129.737 428.776 129.18 428.901 128.463L430.038 122.107L434.143 99.2965L434.382 99.5808L390.342 99.6376L390.626 99.3988V99.5125V99.649V99.9105L390.524 100.434L390.331 101.491L389.944 103.583C389.682 104.971 389.432 106.347 389.171 107.711C388.67 110.44 388.174 113.124 387.681 115.762C386.692 121.015 385.748 125.996 384.873 130.783L384.6 130.464L416.325 130.59L425.422 130.669H427.844H428.469H428.696H428.503H427.9H425.524L416.518 130.737L384.679 130.862H384.361L384.418 130.544C385.293 125.802 386.214 120.765 387.192 115.5C387.67 112.873 388.17 110.19 388.67 107.461C388.932 106.085 389.182 104.709 389.444 103.322C389.569 102.628 389.694 101.935 389.83 101.23L390.024 100.183L390.115 99.6603L390.171 99.3874V99.2624V99.16L390.467 98.9099L434.507 98.9667H434.666L434.609 99.251C432.79 108.769 431.289 116.626 430.243 122.141C429.708 124.836 429.299 126.951 429.003 128.44L428.674 130.066C428.583 130.578 428.537 130.76 428.537 130.749Z" fill="#263238"/>
<path d="M354.592 158.71C355.565 158.71 356.354 157.921 356.354 156.948C356.354 155.974 355.565 155.185 354.592 155.185C353.618 155.185 352.829 155.974 352.829 156.948C352.829 157.921 353.618 158.71 354.592 158.71Z" fill="#263238"/>
<path d="M386.59 156.948C386.59 157.118 379.426 157.243 370.591 157.243C361.755 157.243 354.591 157.118 354.591 156.948C354.591 156.777 361.755 156.652 370.591 156.652C379.426 156.652 386.59 156.788 386.59 156.948Z" fill="#263238"/>
<path d="M428.537 170.684C428.551 170.538 428.578 170.393 428.617 170.252C428.685 169.945 428.776 169.535 428.901 169.024C429.163 167.886 429.538 166.374 430.038 164.396C431.028 160.37 432.438 154.628 434.177 147.566L434.393 147.839L388.977 147.908L389.262 147.692V147.76V147.851V148.044L389.159 148.431L388.966 149.181L388.591 150.705C388.329 151.706 388.079 152.706 387.829 153.707L386.214 159.665C385.236 163.52 384.293 167.25 383.383 170.809L383.121 170.468L415.699 170.593L425.115 170.661H427.639H428.298H428.537H428.333H427.696H425.228L415.859 170.729L383.121 170.854H382.758L382.848 170.502C383.747 166.943 384.679 163.202 385.646 159.347C386.131 157.414 386.627 155.454 387.135 153.468L387.886 150.466L388.272 148.954L388.466 148.192L388.557 147.805V147.623V147.521V147.453L388.841 147.225L434.257 147.305H434.666L434.598 147.578C432.756 154.673 431.266 160.438 430.22 164.475C429.697 166.42 429.288 167.955 429.003 169.024C428.867 169.513 428.765 169.899 428.685 170.161C428.605 170.422 428.537 170.695 428.537 170.684Z" fill="#263238"/>
<path d="M424.955 108.996C424.955 109.167 418.212 109.292 409.889 109.292C401.565 109.292 394.822 109.167 394.822 108.996C394.822 108.825 401.565 108.7 409.889 108.7C418.212 108.7 424.955 108.837 424.955 108.996Z" fill="#263238"/>
<path d="M424.603 113.931C424.603 114.102 417.78 114.227 409.457 114.227C401.133 114.227 394.299 114.102 394.299 113.931C394.299 113.76 401.122 113.635 409.457 113.635C417.792 113.635 424.603 113.772 424.603 113.931Z" fill="#263238"/>
<path d="M423.727 118.73C423.727 118.889 417.178 119.025 409.104 119.025C401.031 119.025 394.47 118.889 394.47 118.73C394.47 118.57 401.019 118.434 409.104 118.434C417.189 118.434 423.727 118.525 423.727 118.73Z" fill="#263238"/>
<path d="M424.25 156.402C424.25 156.561 417.826 156.697 409.889 156.697C401.952 156.697 395.527 156.561 395.527 156.402C395.527 156.243 401.963 156.106 409.889 156.106C417.814 156.106 424.25 156.254 424.25 156.402Z" fill="#263238"/>
<path d="M422.488 161.86C422.488 162.03 417.007 162.156 410.241 162.156C403.476 162.156 397.995 162.03 397.995 161.86C397.995 161.689 403.476 161.564 410.241 161.564C417.007 161.564 422.488 161.701 422.488 161.86Z" fill="#263238"/>
<path d="M239.471 276.105C238.925 279.3 223.756 312.867 233.547 312.867H282.761C282.761 312.867 277.678 308.091 293.063 276.105H239.471Z" fill="#455A64"/>
<path d="M207.632 164.066L187.517 281.62H357.184L377.993 159.938L207.632 164.066Z" fill="#455A64"/>
<path d="M213.398 169.797L196.443 274.729H351.374L370.045 168.682L213.398 169.797Z" fill="#FAFAFA"/>
<path d="M377.993 159.938L381.2 162.099L359.595 284.815H191.997L187.517 281.62H357.184L377.993 159.938Z" fill="#263238"/>
<path d="M211.862 179.348C211.919 178.973 368.271 178.757 368.271 178.757L370.045 168.682L213.398 169.82L211.862 179.371" fill="#EBEBEB"/>
<path d="M326.96 265.416V265.12L327.096 264.245C327.24 263.411 327.434 262.274 327.676 260.833C328.211 257.774 328.961 253.385 329.894 247.939C331.827 236.909 334.522 221.558 337.58 204.137V203.887H350.384L350.327 204.24C345.586 229.927 341.435 252.498 339.036 265.473V265.609H338.911L329.996 265.518H327.722H327.165H327.779H330.132L338.945 265.427L338.786 265.552L349.793 204.274L350.089 204.615H337.899L338.183 204.376C335.033 221.694 332.27 236.943 330.223 247.916C329.223 253.374 328.404 257.774 327.835 260.845C327.551 262.334 327.335 263.505 327.176 264.347C327.096 264.722 327.039 265.029 326.994 265.257C326.985 265.31 326.973 265.363 326.96 265.416Z" fill="#263238"/>
<path d="M307.311 265.416C307.326 265.139 307.368 264.865 307.436 264.597C307.538 263.994 307.686 263.187 307.868 262.164C308.277 259.969 308.846 256.865 309.562 253.067C311.052 245.187 313.133 234.225 315.509 221.694V221.455H328.313L328.245 221.808C324.652 239.626 321.422 255.466 319.421 265.507V265.655H319.273L310.37 265.552H308.095C307.842 265.569 307.587 265.569 307.334 265.552H308.175H310.54L319.319 265.45L319.137 265.598C321.115 255.546 324.231 239.695 327.733 221.853L328.017 222.206H315.759L316.044 221.978C313.576 234.396 311.416 245.266 309.858 253.078C309.073 256.956 308.448 260.071 307.993 262.266L307.481 264.756C307.481 265.018 307.368 265.234 307.334 265.404L307.311 265.416Z" fill="#263238"/>
<path d="M287.582 265.416C287.572 265.295 287.572 265.173 287.582 265.052L287.764 263.915C287.935 262.914 288.173 261.481 288.492 259.639C289.151 255.876 290.095 250.452 291.278 243.72C293.688 230.075 297.043 211.187 300.841 189.776V189.537H313.644L313.588 189.878C307.652 222.388 302.41 250.713 299.635 265.416V265.541H299.51L290.561 265.45H288.287H287.537H288.344H290.675L299.522 265.37L299.385 265.484C301.978 250.702 307.095 222.399 313.03 189.901L313.326 190.253H301.17L301.455 190.003C297.577 211.301 294.143 230.131 291.664 243.674C290.413 250.429 289.39 255.875 288.708 259.651L287.889 263.983C287.798 264.461 287.73 264.836 287.673 265.12L287.582 265.416Z" fill="#263238"/>
<path d="M267.887 265.416C267.896 265.225 267.919 265.035 267.956 264.847C268.035 264.404 268.126 263.847 268.24 263.142C268.501 261.572 268.877 259.389 269.377 256.671C270.366 251.043 271.742 243.231 273.323 234.202V233.964H286.115L286.047 234.316C283.693 246.597 281.578 257.649 280.077 265.461V265.632H279.918L271.049 265.518L268.649 265.416C268.388 265.432 268.126 265.432 267.865 265.416H268.729H271.128L279.861 265.302L279.656 265.461C281.112 257.649 283.17 246.574 285.444 234.282L285.74 234.634H273.562L273.834 234.407C272.152 243.333 270.707 251.054 269.65 256.615C269.127 259.344 268.695 261.55 268.388 263.13C268.24 263.847 268.126 264.438 268.035 264.881C267.996 265.062 267.947 265.241 267.887 265.416Z" fill="#263238"/>
<path d="M248.181 265.416C248.181 265.416 248.181 265.336 248.181 265.177C248.181 265.018 248.181 264.734 248.284 264.438C248.398 263.744 248.545 262.789 248.739 261.561C249.159 259.003 249.751 255.341 250.49 250.793C252.036 241.537 254.174 228.665 256.619 214.007V213.769H269.423L269.354 214.121C265.602 235.305 262.293 254.033 260.258 265.45V265.598H260.121L251.229 265.495H248.898C248.644 265.512 248.39 265.512 248.136 265.495H248.352H248.966H251.331L260.121 265.404L259.951 265.541L268.797 214.167L269.093 214.519H256.96L257.244 214.28C254.708 228.835 252.48 241.571 250.876 250.793C250.058 255.341 249.41 259.037 248.943 261.618C248.716 262.857 248.545 263.892 248.409 264.54L248.261 265.313L248.181 265.416Z" fill="#263238"/>
<path d="M228.51 265.416C228.495 265.306 228.495 265.195 228.51 265.086C228.51 264.836 228.601 264.506 228.669 264.085C228.828 263.164 229.044 261.811 229.328 260.174C229.908 256.762 230.761 251.771 231.807 245.607C233.968 233.156 236.981 215.827 240.392 196.212V195.973H253.196L253.139 196.325C247.84 225.799 243.155 251.566 240.574 265.45V265.575H240.449L231.523 265.484H229.249H228.703H229.306H231.637L240.472 265.393L240.324 265.518C242.735 251.6 247.306 225.811 252.605 196.348L252.889 196.689H240.711L240.995 196.451C237.504 215.963 234.411 233.19 232.194 245.573C231.057 251.759 230.158 256.728 229.522 260.185C229.215 261.891 228.964 263.21 228.794 264.154C228.703 264.586 228.646 264.927 228.589 265.188C228.532 265.45 228.51 265.416 228.51 265.416Z" fill="#263238"/>
<path d="M219.947 174.527C219.949 174.813 219.867 175.094 219.709 175.333C219.552 175.572 219.327 175.758 219.064 175.869C218.8 175.98 218.509 176.011 218.228 175.956C217.948 175.902 217.689 175.765 217.486 175.564C217.283 175.362 217.144 175.105 217.088 174.824C217.031 174.544 217.059 174.253 217.168 173.989C217.277 173.724 217.462 173.498 217.7 173.339C217.937 173.179 218.217 173.094 218.503 173.094C218.884 173.094 219.25 173.245 219.52 173.513C219.791 173.782 219.944 174.146 219.947 174.527Z" fill="#263238"/>
<path d="M225.564 175.96C226.356 175.96 226.997 175.318 226.997 174.527C226.997 173.736 226.356 173.094 225.564 173.094C224.773 173.094 224.132 173.736 224.132 174.527C224.132 175.318 224.773 175.96 225.564 175.96Z" fill="#263238"/>
<path d="M234.059 174.527C234.061 174.814 233.978 175.094 233.82 175.334C233.662 175.573 233.437 175.76 233.172 175.87C232.908 175.981 232.617 176.011 232.336 175.955C232.054 175.9 231.796 175.762 231.593 175.56C231.391 175.357 231.253 175.099 231.198 174.817C231.142 174.536 231.172 174.245 231.283 173.981C231.393 173.716 231.58 173.491 231.819 173.333C232.059 173.175 232.339 173.092 232.626 173.094C233.005 173.097 233.368 173.249 233.636 173.517C233.904 173.785 234.056 174.148 234.059 174.527Z" fill="#263238"/>
<path d="M208.815 265.416C208.815 265.416 208.815 265.12 208.94 264.54C209.065 263.96 209.179 263.051 209.361 261.959C209.759 259.685 210.316 256.353 211.01 252.271C212.465 243.925 214.478 232.326 216.786 219.09V218.851H229.59L229.522 219.204C226.008 238.148 222.881 254.954 220.936 265.461V265.609H220.8L211.896 265.507H209.622C209.365 265.523 209.107 265.523 208.849 265.507H209.076H209.69H212.056L220.845 265.404L220.664 265.552L229.021 219.261L229.306 219.602H217.07L217.355 219.363C214.955 232.497 212.806 244.004 211.351 252.271C210.577 256.376 209.963 259.685 209.52 262.004C209.315 263.142 209.145 264.006 209.02 264.643L208.883 265.336C208.862 265.364 208.839 265.39 208.815 265.416Z" fill="#263238"/>
<path d="M341.731 219.147H276.825L280.532 197.36H345.893L341.731 219.147Z" fill="#EE4248"/>
<path d="M276.825 219.147L275.563 226.754C275.563 226.754 284.091 218.851 283.955 218.851H276.882" fill="#EE4248"/>
<path d="M336.102 204.933C336.102 205.093 325.288 205.229 311.962 205.229C298.635 205.229 287.81 205.093 287.81 204.933C287.81 204.774 298.623 204.638 311.962 204.638C325.3 204.638 336.102 204.774 336.102 204.933Z" fill="#FAFAFA"/>
<path d="M335.465 210.198C335.465 210.357 324.652 210.494 311.325 210.494C297.998 210.494 287.173 210.357 287.173 210.198C287.173 210.039 297.987 209.902 311.325 209.902C324.663 209.902 335.465 210.028 335.465 210.198Z" fill="#FAFAFA"/>
<path d="M441.625 320.395H256.71V428.294H441.625V320.395Z" fill="#263238"/>
<path d="M340.946 320.395H256.71V428.294H340.946V320.395Z" fill="#455A64"/>
<path d="M332.327 357.044C332.327 357.044 332.327 356.85 332.327 356.498C332.327 356.145 332.327 355.599 332.327 354.929C332.327 353.53 332.327 351.517 332.27 348.936C332.27 343.751 332.213 336.28 332.156 327.07L332.372 327.286L264.612 327.365C264.351 327.638 264.965 327.013 264.908 327.081V334.881C264.908 337.463 264.908 340.01 264.908 342.511C264.908 347.526 264.908 352.393 264.908 357.044L264.635 356.771L313.201 356.896L327.29 356.975H331.065H332.054H332.395C332.293 356.986 332.19 356.986 332.088 356.975H331.133H327.415L313.394 357.055L264.635 357.191H264.351V356.907C264.351 352.256 264.351 347.39 264.351 342.375V327.081C264.283 327.081 264.908 326.512 264.647 326.774L332.327 326.819H332.543V327.024C332.543 336.291 332.452 343.796 332.429 349.027C332.429 351.585 332.429 353.575 332.372 354.963C332.372 355.611 332.372 356.1 332.372 356.498C332.371 356.681 332.355 356.863 332.327 357.044Z" fill="#263238"/>
<path d="M301.364 342.056C301.364 342.056 301.296 341.806 301.159 341.386C300.969 340.804 300.599 340.298 300.102 339.941C299.743 339.682 299.326 339.516 298.887 339.458C298.448 339.401 298.002 339.453 297.589 339.612C297.089 339.798 296.658 340.133 296.354 340.571C296.05 341.009 295.887 341.529 295.887 342.062C295.887 342.595 296.05 343.116 296.354 343.554C296.658 343.992 297.089 344.326 297.589 344.513C298.003 344.665 298.448 344.715 298.886 344.657C299.323 344.6 299.741 344.437 300.102 344.183C300.599 343.826 300.969 343.32 301.159 342.739C301.296 342.318 301.307 342.056 301.364 342.056C301.421 342.056 301.455 342.318 301.364 342.796C301.232 343.472 300.866 344.08 300.329 344.513C299.923 344.843 299.439 345.063 298.923 345.153C298.408 345.242 297.878 345.198 297.384 345.024C296.77 344.809 296.238 344.409 295.861 343.878C295.485 343.347 295.282 342.713 295.282 342.062C295.282 341.412 295.485 340.777 295.861 340.246C296.238 339.716 296.77 339.315 297.384 339.1C297.877 338.928 298.406 338.884 298.921 338.971C299.436 339.059 299.92 339.275 300.329 339.6C300.867 340.036 301.234 340.649 301.364 341.329C301.455 341.806 301.398 342.068 301.364 342.056Z" fill="#263238"/>
<path d="M332.327 390.042C332.327 390.042 332.327 389.849 332.327 389.496C332.327 389.144 332.327 388.587 332.327 387.916C332.327 386.517 332.327 384.505 332.27 381.935C332.27 376.738 332.213 369.279 332.157 360.068L332.373 360.284L264.613 360.364L264.908 360.068V367.857C264.908 370.439 264.908 372.974 264.908 375.487C264.908 380.502 264.908 385.357 264.908 390.019L264.635 389.735L313.201 389.872L327.29 389.951H331.065H332.054C332.168 389.942 332.282 389.942 332.395 389.951H332.088H331.133H327.415L313.394 390.031L264.635 390.167H264.351V389.883C264.351 385.221 264.351 380.365 264.351 375.351V360.091L264.647 359.795L332.407 359.875H332.623V360.091C332.623 369.358 332.532 376.863 332.509 382.083C332.509 384.641 332.509 386.631 332.452 388.03C332.452 388.678 332.452 389.167 332.452 389.553C332.421 389.719 332.379 389.882 332.327 390.042Z" fill="#263238"/>
<path d="M301.364 375.055C301.364 375.055 301.296 374.794 301.159 374.373C300.969 373.791 300.599 373.285 300.102 372.929C299.741 372.675 299.323 372.512 298.886 372.455C298.448 372.397 298.003 372.447 297.589 372.599C297.089 372.785 296.658 373.12 296.354 373.558C296.05 373.996 295.887 374.516 295.887 375.05C295.887 375.583 296.05 376.103 296.354 376.541C296.658 376.979 297.089 377.314 297.589 377.5C298.001 377.657 298.447 377.71 298.885 377.654C299.323 377.599 299.741 377.437 300.102 377.182C300.602 376.823 300.973 376.313 301.159 375.726C301.296 375.305 301.307 375.055 301.364 375.055C301.421 375.055 301.455 375.317 301.364 375.783C301.236 376.464 300.869 377.077 300.329 377.511C299.922 377.84 299.437 378.058 298.922 378.145C298.406 378.233 297.877 378.187 297.384 378.012C296.77 377.797 296.238 377.396 295.861 376.865C295.485 376.335 295.282 375.7 295.282 375.05C295.282 374.399 295.485 373.764 295.861 373.234C296.238 372.703 296.77 372.302 297.384 372.087C297.878 371.914 298.408 371.869 298.923 371.959C299.439 372.049 299.923 372.269 300.329 372.599C300.869 373.034 301.236 373.647 301.364 374.327C301.455 374.794 301.398 375.055 301.364 375.055Z" fill="#263238"/>
<path d="M332.327 423.03C332.327 423.03 332.327 422.836 332.327 422.484C332.327 422.131 332.327 421.585 332.327 420.915C332.327 419.516 332.327 417.503 332.27 414.922C332.27 409.737 332.213 402.266 332.156 393.056L332.372 393.272L264.612 393.351C264.351 393.624 264.965 392.999 264.908 393.067V400.867C264.908 403.449 264.908 405.996 264.908 408.497C264.908 413.512 264.908 418.379 264.908 423.03L264.635 422.757L313.201 422.882L327.29 422.961H331.065H332.054H332.395C332.293 422.972 332.19 422.972 332.088 422.961H331.133H327.415L313.394 423.03L264.635 423.166H264.351V422.882C264.351 418.231 264.351 413.364 264.351 408.35V393.067C264.283 393.124 264.908 392.498 264.647 392.76L332.407 392.851H332.623V393.056C332.623 402.323 332.532 409.839 332.509 415.059C332.509 417.617 332.509 419.607 332.452 420.994C332.452 421.654 332.452 422.131 332.452 422.529C332.422 422.699 332.38 422.866 332.327 423.03Z" fill="#263238"/>
<path d="M301.364 408.043C301.364 408.043 301.296 407.792 301.159 407.372C300.969 406.79 300.599 406.284 300.102 405.928C299.742 405.671 299.324 405.506 298.886 405.449C298.448 405.391 298.002 405.442 297.589 405.598C297.089 405.784 296.658 406.119 296.354 406.557C296.05 406.995 295.887 407.515 295.887 408.048C295.887 408.581 296.05 409.102 296.354 409.54C296.658 409.978 297.089 410.312 297.589 410.499C298.002 410.654 298.448 410.705 298.886 410.648C299.324 410.59 299.742 410.426 300.102 410.169C300.599 409.812 300.969 409.306 301.159 408.725C301.296 408.304 301.307 408.043 301.364 408.043C301.421 408.043 301.455 408.304 301.364 408.782C301.231 409.461 300.865 410.072 300.329 410.51C299.92 410.835 299.436 411.052 298.921 411.139C298.406 411.227 297.877 411.183 297.384 411.01C296.77 410.795 296.238 410.395 295.861 409.864C295.485 409.334 295.282 408.699 295.282 408.048C295.282 407.398 295.485 406.763 295.861 406.232C296.238 405.702 296.77 405.301 297.384 405.086C297.877 404.914 298.406 404.87 298.921 404.957C299.436 405.045 299.92 405.261 300.329 405.586C300.867 406.022 301.234 406.635 301.364 407.315C301.455 407.792 301.398 408.054 301.364 408.043Z" fill="#263238"/>
<path d="M165.514 320.395H9.96979V428.294H165.514V320.395Z" fill="#263238"/>
<path d="M448.323 312.867H4V323.124H448.323V312.867Z" fill="#263238"/>
<path d="M23.7515 323.124H9.96979V428.294H23.7515V323.124Z" fill="#455A64"/>
<path d="M182.718 150.568C182.627 150.137 182.562 149.7 182.525 149.261C182.36 148.092 181.974 146.965 181.388 145.94C181.008 145.254 180.43 144.699 179.728 144.348C179.332 144.179 178.895 144.13 178.472 144.209C178.049 144.288 177.659 144.491 177.351 144.792C176.034 146.427 175.316 148.463 175.316 150.563C175.316 152.662 176.034 154.699 177.351 156.334C177.658 156.637 178.047 156.842 178.47 156.923C178.894 157.004 179.331 156.957 179.728 156.788C180.428 156.43 181.006 155.872 181.388 155.185C181.974 154.16 182.36 153.033 182.525 151.865C182.562 151.429 182.626 150.996 182.718 150.568C182.792 151.009 182.792 151.458 182.718 151.899C182.642 153.123 182.305 154.318 181.729 155.401C181.318 156.182 180.68 156.821 179.898 157.232C179.435 157.454 178.916 157.529 178.409 157.448C177.879 157.344 177.386 157.105 176.976 156.754C175.508 155.027 174.702 152.835 174.702 150.568C174.702 148.302 175.508 146.109 176.976 144.383C177.382 144.024 177.877 143.781 178.409 143.678C178.916 143.602 179.434 143.677 179.898 143.894C180.68 144.305 181.318 144.943 181.729 145.724C182.307 146.811 182.644 148.009 182.718 149.238C182.791 149.678 182.791 150.128 182.718 150.568Z" fill="#263238"/>
<path d="M133.63 128.338L130.218 196.473L159.487 199.225L161.102 182.68C161.102 182.68 171.336 185.227 174.52 175.71C176.51 169.626 178.284 121.993 178.284 121.993L133.63 128.338Z" fill="#FFBE9D"/>
<path d="M184.504 129.02C182.013 134.945 172.621 140.027 172.621 140.027L171.086 155.117C169.689 155.02 168.287 155.02 166.89 155.117C167.64 148.033 158.532 149.431 157.6 154.241C156.713 158.881 162 161.985 162 161.985C158.35 167.579 156.872 170.536 151.687 175.778C146.092 181.463 143.079 181.918 137.291 181.748L130.912 181.452C130.912 181.452 128.638 176.005 126.989 163.145C126.182 156.959 121.304 148.851 122.725 138.788C126.637 110.213 158.259 115.284 158.259 115.284C170.131 106.051 190.371 115.091 184.504 129.02Z" fill="#263238"/>
<path d="M182.718 150.648C180.56 151.064 178.367 151.277 176.169 151.285C173.982 151.479 171.783 151.479 169.596 151.285C171.752 150.876 173.941 150.666 176.135 150.659C178.325 150.465 180.528 150.461 182.718 150.648Z" fill="#263238"/>
<path d="M275.961 230.689L265.329 237.272L261.429 246.369V238.41C261.429 238.41 264.317 234.998 266.682 232.508C269.047 230.018 267.353 228.289 266.682 227.437C266.011 226.584 255.834 238.41 255.834 238.41V245.232C251.092 239.399 248.898 241.4 248.17 242.458C247.442 243.515 255.834 251.429 255.834 251.429V253.84L214.137 276.264L203.164 248.973L180.751 260.742L194.135 293.138C195.058 295.38 196.452 297.396 198.223 299.051C199.994 300.706 202.1 301.96 204.398 302.729C206.697 303.498 209.134 303.764 211.544 303.508C213.954 303.252 216.281 302.48 218.367 301.246L267.433 272.238L270.696 266.792C271.829 264.915 272.496 262.793 272.641 260.606L274.335 236.101C277.314 234.236 275.961 230.689 275.961 230.689Z" fill="#FFBE9D"/>
<path d="M214.341 276.298C213.351 280.135 211.971 283.861 210.225 287.419C211.229 283.586 212.608 279.861 214.341 276.298Z" fill="#EB996E"/>
<path d="M274.335 236.101C273.707 236.425 273.061 236.713 272.402 236.965C271.649 237.322 270.978 237.829 270.428 238.455C269.879 239.08 269.463 239.812 269.207 240.604C268.357 242.894 267.322 245.111 266.114 247.234C266.78 244.895 267.632 242.614 268.661 240.411C268.993 239.48 269.52 238.631 270.207 237.921C270.796 237.373 271.478 236.934 272.22 236.624C272.876 236.291 273.599 236.112 274.335 236.101Z" fill="#EB996E"/>
<path d="M274.176 239.979C273.991 240.004 273.815 240.07 273.659 240.172C273.504 240.274 273.373 240.41 273.277 240.57C272.948 241.207 272.527 242.208 272.14 243.276C271.713 244.629 271.212 245.958 270.639 247.256C270.641 245.805 270.963 244.372 271.583 243.06C271.95 242.103 272.419 241.188 272.982 240.331C273.085 240.189 273.217 240.07 273.37 239.984C273.523 239.897 273.693 239.845 273.869 239.831C274.085 239.831 274.187 239.945 274.176 239.979Z" fill="#EB996E"/>
<path d="M174.054 256.592L178.818 272.727L209.054 259.082C207.917 255.671 202.959 240.65 193.396 216.771C190.777 210.223 186.518 204.46 181.027 200.035C175.537 195.61 169 192.672 162.046 191.504C152.153 189.855 141.385 188.57 133.095 188.673C124.866 188.749 116.911 191.648 110.562 196.884C104.212 202.12 99.8516 209.377 98.209 217.441C95.6505 230.12 100.131 238.501 97.2425 266.246L96.3214 336.03L177.056 338.998L174.054 256.592Z" fill="#EE4248"/>
<path d="M100.995 265.507C100.995 265.507 89.7717 266.166 85.3597 257.672C85.3597 257.672 97.4471 212.984 101.666 207.719L100.995 265.507Z" fill="#EE4248"/>
<path d="M194.92 221.273C194.631 221.497 194.308 221.673 193.964 221.797C192.975 222.156 191.935 222.351 190.883 222.376C189.23 222.368 187.584 222.158 185.982 221.751C184.117 221.33 182.036 220.705 179.705 220.318C178.49 220.172 177.267 220.107 176.044 220.125C174.72 220.23 173.408 220.447 172.121 220.773C169.266 221.549 166.524 222.696 163.968 224.184C161.204 225.685 158.396 227.459 155.405 229.21C152.337 231.115 149.049 232.642 145.615 233.759C142.086 234.852 138.317 234.911 134.755 233.929C131.525 232.884 128.515 231.254 125.875 229.119C123.339 227.152 121.133 225.083 119.052 223.195C117.154 221.426 115.141 219.785 113.025 218.283C110.014 216.032 106.503 214.542 102.792 213.939C101.42 213.862 100.046 213.862 98.6752 213.939C99.0105 213.803 99.3622 213.711 99.7213 213.666C100.751 213.502 101.796 213.453 102.837 213.518C106.67 213.963 110.326 215.38 113.458 217.635C115.642 219.109 117.717 220.739 119.666 222.513C121.781 224.378 124.01 226.402 126.489 228.289C129.037 230.309 131.931 231.849 135.028 232.838C138.389 233.743 141.938 233.676 145.262 232.644C148.602 231.553 151.804 230.076 154.803 228.244C157.77 226.527 160.602 224.753 163.422 223.252C166.074 221.745 168.915 220.598 171.87 219.841C173.222 219.517 174.6 219.312 175.987 219.227C177.269 219.24 178.549 219.339 179.819 219.522C182.23 219.977 184.288 220.659 186.118 221.137C187.663 221.582 189.254 221.849 190.86 221.933C192.239 221.925 193.609 221.703 194.92 221.273Z" fill="#263238"/>
<path d="M174.588 276.957C173.047 276.039 171.345 275.422 169.574 275.138C167.644 274.91 165.69 275.018 163.797 275.456C161.637 275.888 159.306 276.673 156.747 277.31C152.357 278.439 147.76 278.501 143.341 277.492C139.929 276.696 138.099 275.616 138.155 275.502C138.212 275.388 140.191 276.105 143.511 276.639C147.817 277.372 152.228 277.198 156.463 276.127C158.953 275.502 161.33 274.74 163.592 274.342C165.609 273.934 167.685 273.911 169.71 274.274C171.081 274.518 172.384 275.053 173.531 275.843C174.327 276.468 174.645 276.912 174.588 276.957Z" fill="#263238"/>
<path d="M175.407 318.621C175.407 318.621 175.1 319.133 174.338 319.849C173.238 320.855 172.006 321.708 170.677 322.385C168.682 323.42 166.476 323.98 164.229 324.022C161.487 323.947 158.784 323.345 156.269 322.248C153.62 321.213 151.198 320.054 148.912 319.405C146.892 318.788 144.777 318.542 142.67 318.678C141.262 318.762 139.889 319.15 138.644 319.815C137.757 320.304 137.348 320.702 137.269 320.622C137.189 320.543 137.541 320.065 138.406 319.485C139.638 318.592 141.079 318.028 142.59 317.848C144.808 317.589 147.056 317.762 149.208 318.359C151.76 319.152 154.265 320.086 156.713 321.157C159.084 322.194 161.622 322.799 164.206 322.942C166.305 322.951 168.38 322.505 170.29 321.634C173.644 320.122 175.293 318.45 175.407 318.621Z" fill="#263238"/>
<g opacity="0.3">
<path opacity="0.3" d="M87.85 266.291C98.4251 268.452 109.284 266.291 120.053 265.632C126.591 265.245 133.834 264.495 138.997 268.554C143.09 271.738 144.682 277.094 145.922 282.143C150.47 301.405 151.255 318.609 152.267 338.361L99.9602 337.224L87.85 266.291Z" fill="black"/>
</g>
<path opacity="0.3" d="M101.666 230.029L103.929 262.641H97.0378L101.666 230.029Z" fill="black"/>
<path d="M116.357 335.984L220.175 339.657C228.276 339.942 235.943 343.394 241.526 349.271C247.11 355.148 250.165 362.981 250.035 371.087L249.125 430H211.055L208.599 379.206L116.357 376.772V335.984Z" fill="#263238"/>
<path d="M151.175 389.849H140.964V427.225H151.175V389.849Z" fill="#455A64"/>
<path d="M55.2834 271.101V361.16C55.2864 366.831 57.5412 372.268 61.5521 376.277C65.5629 380.285 71.0016 382.537 76.6723 382.537H136.643V271.101C136.64 268.573 135.634 266.149 133.845 264.363C132.056 262.576 129.631 261.572 127.103 261.572H64.8123C62.2851 261.572 59.8614 262.576 58.0743 264.363C56.2873 266.15 55.2834 268.574 55.2834 271.101Z" fill="#455A64"/>
<path d="M217.355 389.849H71.3051C71.3232 385.639 73.0083 381.607 75.9919 378.636C78.9754 375.666 83.0142 373.998 87.2246 373.998H201.56C205.764 373.998 209.796 375.668 212.769 378.64C215.741 381.613 217.411 385.645 217.411 389.849H217.355Z" fill="#455A64"/>
<path d="M136.643 371.894C136.709 372.784 136.633 373.678 136.416 374.544C135.926 376.571 134.859 378.413 133.343 379.846C131.827 381.279 129.928 382.242 127.876 382.617C126.948 382.768 126.008 382.832 125.067 382.81H122.122H109H85.1209L77.9003 382.719H75.9331C75.7037 382.726 75.4743 382.704 75.2509 382.651C75.4765 382.615 75.7046 382.596 75.9331 382.594L77.9003 382.537L85.1209 382.435L109 382.321H125.067C125.98 382.356 126.894 382.303 127.796 382.162C129.393 381.886 130.901 381.236 132.197 380.263C134.12 378.842 135.51 376.815 136.143 374.509C136.62 372.849 136.563 371.883 136.643 371.894Z" fill="#263238"/>
<path d="M155.019 390.156C152.046 390.456 149.056 390.554 146.07 390.452C143.08 390.555 140.086 390.456 137.109 390.156C140.086 389.863 143.08 389.764 146.07 389.86C149.056 389.764 152.045 389.863 155.019 390.156Z" fill="#263238"/>
<path d="M199.457 383.333C199.315 382.968 199.224 382.586 199.184 382.196C199.036 381.457 198.843 380.388 198.615 379.001C198.149 376.215 197.478 372.178 196.75 367.221C196.341 364.742 196.011 361.979 195.465 359.102C195.318 358.385 195.181 357.658 195.033 356.907C194.885 356.157 194.601 355.452 194.385 354.701C194.271 354.337 194.169 353.951 194.055 353.564C193.942 353.177 193.771 352.825 193.623 352.427C193.316 351.676 193.043 350.915 192.714 350.153C191.27 347.039 189.444 344.117 187.278 341.454C184.913 338.625 182.161 336.145 179.102 334.085C176.058 332.002 172.714 330.391 169.187 329.31C165.913 328.27 162.511 327.689 159.078 327.581C152.46 327.433 146.433 327.467 141.408 327.399C136.382 327.331 132.311 327.274 129.491 327.206C128.081 327.206 126.989 327.138 126.239 327.092C125.856 327.104 125.474 327.066 125.101 326.979C125.473 326.883 125.855 326.841 126.239 326.853L129.491 326.74C132.299 326.671 136.382 326.615 141.408 326.558C146.433 326.501 152.426 326.399 159.112 326.49C162.652 326.565 166.163 327.143 169.539 328.207C173.185 329.298 176.638 330.951 179.773 333.107C182.932 335.222 185.767 337.784 188.188 340.715C190.404 343.468 192.265 346.49 193.726 349.709C194.055 350.482 194.328 351.278 194.635 352.04C194.772 352.427 194.92 352.802 195.067 353.177C195.215 353.553 195.283 353.951 195.397 354.314C195.613 355.088 195.818 355.838 196.023 356.589C196.227 357.339 196.307 358.101 196.443 358.863C196.955 361.808 197.228 364.548 197.58 367.027C198.229 372.019 198.717 376.067 199.07 378.864C199.229 380.263 199.354 381.355 199.422 382.094C199.496 382.503 199.508 382.921 199.457 383.333Z" fill="#455A64"/>
<path d="M15.1549 274.353C15.1549 274.353 13.3128 279.505 16.8378 283.234H24.1721C24.1721 283.234 23.524 274.911 15.1549 274.353Z" fill="#EE4248"/>
<path opacity="0.4" d="M15.1549 274.353C15.1549 274.353 13.3128 279.505 16.8378 283.234H24.1721C24.1721 283.234 23.524 274.911 15.1549 274.353Z" fill="black"/>
<path d="M27.6517 263.744C27.3447 263.38 21.0679 273.205 24.5929 283.234H31.5065C31.5065 283.234 34.2128 271.567 27.6517 263.744Z" fill="#EE4248"/>
<path d="M39.8983 274.353C37.6382 274.505 35.5187 275.504 33.963 277.15C32.4073 278.797 31.53 280.969 31.5064 283.234H38.4087C38.4087 283.234 41.4334 278.981 39.8983 274.353Z" fill="#EE4248"/>
<path d="M16.2692 282.848C13.8848 284.559 12.0355 286.913 10.9364 289.634C9.83727 292.356 9.53358 295.334 10.0607 298.221C11.8345 308.455 22.637 312.867 22.637 312.867H34.6107C34.6107 312.867 46.8004 307.489 46.5048 296.425C46.2091 285.361 38.9544 283.007 38.9544 283.007L16.2692 282.848Z" fill="#455A64"/>
<path d="M46.4593 295.185C46.1882 294.728 45.8553 294.311 45.4701 293.946C44.9133 293.501 44.2737 293.172 43.5885 292.977C42.9034 292.781 42.1863 292.724 41.4788 292.809C39.3612 293.21 37.3602 294.08 35.6228 295.356C34.5191 296.061 33.3501 296.659 32.1318 297.141C30.7877 297.652 29.3319 297.797 27.9132 297.562C24.9908 297.061 22.6598 295.492 20.4765 294.446C18.6189 293.362 16.4836 292.848 14.3362 292.968C12.9006 293.117 11.5714 293.793 10.6065 294.867C10.2841 295.29 10.0095 295.748 9.78778 296.231C9.79538 296.088 9.82215 295.947 9.86738 295.811C9.98522 295.402 10.1738 295.017 10.4246 294.673C11.378 293.477 12.7616 292.702 14.2793 292.513C16.537 292.315 18.8008 292.819 20.7608 293.957C23.035 295.003 25.3092 296.516 28.0497 296.97C29.3711 297.197 30.7293 297.068 31.984 296.595C33.173 296.132 34.3152 295.557 35.3953 294.878C37.2087 293.591 39.2943 292.739 41.4902 292.388C42.2477 292.314 43.0122 292.399 43.7348 292.638C44.4574 292.877 45.1221 293.264 45.6861 293.775C45.9795 294.063 46.2184 294.402 46.3911 294.776C46.448 295.037 46.4821 295.174 46.4593 295.185Z" fill="#263238"/>
<path d="M46.63 297.857C46.3572 297.408 46.0286 296.996 45.6521 296.629C45.1037 296.182 44.4703 295.85 43.7901 295.655C43.1099 295.46 42.3971 295.404 41.6949 295.492C39.6006 295.895 37.623 296.761 35.9071 298.028C34.8321 298.738 33.6894 299.34 32.4958 299.825C31.1639 300.337 29.7186 300.483 28.3112 300.245C25.4116 299.745 23.1033 298.176 20.9428 297.13C19.1137 296.047 17.0042 295.533 14.8821 295.651C13.4557 295.807 12.1383 296.488 11.1865 297.562C10.8689 297.98 10.6018 298.434 10.3905 298.915C10.3905 298.915 10.3905 298.767 10.4587 298.494C10.5817 298.107 10.766 297.742 11.0045 297.414C11.9427 296.221 13.3095 295.442 14.8138 295.242C17.0335 295.04 19.2613 295.529 21.193 296.641C23.399 297.687 25.7414 299.199 28.4022 299.654C29.7087 299.881 31.0522 299.751 32.2911 299.279C33.4625 298.817 34.586 298.242 35.6455 297.562C37.4376 296.274 39.5049 295.422 41.6836 295.071C42.4249 295.005 43.1719 295.094 43.8768 295.333C44.5818 295.572 45.229 295.955 45.7771 296.459C46.0654 296.745 46.3003 297.08 46.4708 297.448C46.5461 297.575 46.5999 297.713 46.63 297.857Z" fill="#263238"/>
<path d="M15.5529 297.789C15.5529 297.721 15.8713 297.516 16.292 297.857C16.4192 297.967 16.51 298.113 16.5527 298.275C16.5953 298.438 16.5877 298.609 16.5308 298.767C16.4608 298.962 16.3296 299.128 16.1569 299.242C15.9841 299.355 15.7791 299.41 15.5728 299.397C15.3664 299.384 15.1697 299.305 15.0124 299.171C14.855 299.037 14.7454 298.855 14.7001 298.653C14.6601 298.497 14.6633 298.334 14.7094 298.179C14.7555 298.025 14.8427 297.886 14.9616 297.778C15.371 297.437 15.7235 297.596 15.7007 297.664C15.678 297.732 15.4506 297.789 15.28 298.062C15.2432 298.13 15.2239 298.206 15.2239 298.284C15.2239 298.361 15.2432 298.437 15.28 298.505C15.3133 298.585 15.3662 298.655 15.4338 298.709C15.5014 298.762 15.5815 298.798 15.6666 298.812C15.7506 298.809 15.8324 298.785 15.9041 298.741C15.9758 298.697 16.035 298.636 16.076 298.562C16.114 298.499 16.1342 298.426 16.1342 298.352C16.1342 298.278 16.114 298.205 16.076 298.142C15.8258 297.88 15.5643 297.869 15.5529 297.789Z" fill="#263238"/>
<path d="M29.1186 293.468C29.1186 293.4 29.437 293.184 29.8691 293.536C29.9917 293.649 30.0786 293.795 30.119 293.957C30.1594 294.119 30.1516 294.289 30.0965 294.446C30.0247 294.639 29.8937 294.805 29.7222 294.919C29.5506 295.034 29.3473 295.091 29.1413 295.083C28.9358 295.063 28.7413 294.981 28.5846 294.846C28.4278 294.712 28.3165 294.532 28.2658 294.332C28.2245 294.175 28.2282 294.01 28.2765 293.855C28.3247 293.7 28.4156 293.562 28.5387 293.457C28.948 293.116 29.3005 293.275 29.2664 293.343C29.2323 293.411 29.0162 293.468 28.8457 293.741C28.8116 293.81 28.7939 293.886 28.7939 293.963C28.7939 294.04 28.8116 294.116 28.8457 294.184C28.879 294.264 28.9319 294.334 28.9995 294.388C29.0671 294.441 29.1472 294.477 29.2323 294.492C29.3165 294.49 29.3988 294.465 29.4707 294.422C29.5426 294.378 29.6016 294.315 29.6417 294.241C29.681 294.178 29.7018 294.105 29.7018 294.031C29.7018 293.957 29.681 293.884 29.6417 293.821C29.3915 293.559 29.13 293.548 29.1186 293.468Z" fill="#263238"/>
<path d="M42.2748 297.982C42.2748 297.914 42.5932 297.71 43.0253 298.051C43.148 298.163 43.2348 298.31 43.2753 298.471C43.3157 298.633 43.3078 298.803 43.2527 298.96C43.181 299.154 43.05 299.319 42.8784 299.434C42.7069 299.548 42.5036 299.605 42.2976 299.597C42.0935 299.578 41.9001 299.497 41.7435 299.365C41.5869 299.233 41.4747 299.056 41.422 298.858C41.3812 298.699 41.385 298.533 41.4332 298.376C41.4814 298.219 41.572 298.079 41.6949 297.971C42.1043 297.63 42.4568 297.789 42.4227 297.857C42.3885 297.926 42.1725 297.994 42.0019 298.255C41.9541 298.323 41.9245 298.401 41.9161 298.483C41.9077 298.566 41.9208 298.648 41.954 298.724C41.9872 298.8 42.0395 298.865 42.1057 298.915C42.1719 298.964 42.2497 298.996 42.3317 299.006C42.4159 299.004 42.4982 298.98 42.57 298.936C42.6419 298.892 42.7009 298.83 42.741 298.756C42.7803 298.693 42.8012 298.62 42.8012 298.545C42.8012 298.471 42.7803 298.398 42.741 298.335C42.5477 298.085 42.2976 298.062 42.2748 297.982Z" fill="#263238"/>
<path d="M388.409 272.409L392.309 312.867H412.026L416.745 272.409H388.409Z" fill="#455A64"/>
<path d="M388.409 267.178C387.195 268.694 386.541 270.581 386.555 272.523H418.599C418.755 271.548 418.667 270.55 418.344 269.618C418.02 268.685 417.471 267.847 416.745 267.178H388.409Z" fill="#263238"/>
<path d="M392.059 263.471L390.979 267.474L415.165 267.656L413.562 263.426L392.059 263.471Z" fill="#263238"/>
<path d="M388.045 282.541C388.045 282.916 390.319 302.94 390.319 302.94H414.414L416.689 282.575L388.045 282.541Z" fill="#EE4248"/>
</g>
<defs>
<filter id="filter0_d_1_202" x="0" y="80.5798" width="460.942" height="357.42" filterUnits="userSpaceOnUse" color-interpolation-filters="sRGB">
<feFlood flood-opacity="0" result="BackgroundImageFix"/>
<feColorMatrix in="SourceAlpha" type="matrix" values="0 0 0 0 0 0 0 0 0 0 0 0 0 0 0 0 0 0 127 0" result="hardAlpha"/>
<feOffset dy="4"/>
<feGaussianBlur stdDeviation="2"/>
<feComposite in2="hardAlpha" operator="out"/>
<feColorMatrix type="matrix" values="0 0 0 0 0 0 0 0 0 0 0 0 0 0 0 0 0 0 0.25 0"/>
<feBlend mode="normal" in2="BackgroundImageFix" result="effect1_dropShadow_1_202"/>
<feBlend mode="normal" in="SourceGraphic" in2="effect1_dropShadow_1_202" result="shape"/>
</filter>
</defs>
</svg>
